<?xml version="1.0" encoding="UTF-8"?>
<svg xmlns="http://www.w3.org/2000/svg" xmlns:xlink="http://www.w3.org/1999/xlink" width="2000px" height="750px" viewBox="0 0 2000 750" version="1.1">
<g id="surface1">
<path style=" stroke:none;fill-rule:evenodd;fill:rgb(0%,0%,56.078431%);fill-opacity:1;" d="M 116.582031 0 L 116.582031 674.597656 L 941.667969 674.597656 L 941.667969 0 Z M 718.105469 629.917969 C 716.523438 619.234375 713.710938 608.71875 709.714844 598.527344 L 683.703125 526.117188 L 568.144531 526.117188 L 547.40625 549.976562 L 566.105469 599.050781 C 570.050781 609.796875 574.859375 620.285156 580.492188 630.441406 L 514.800781 630.441406 L 504.011719 599.050781 L 477.761719 630.441406 L 425.015625 630.441406 L 413.75 599.050781 L 385.816406 630.441406 L 333.074219 630.441406 C 334.277344 629.582031 335.398438 628.636719 336.429688 627.617188 C 347.300781 619.167969 357.105469 609.734375 365.679688 599.46875 L 399.242188 560.960938 L 386.175781 526.117188 L 270.859375 526.117188 L 180.714844 630.757812 L 124.734375 630.757812 C 137.730469 621.953125 149.410156 611.757812 159.496094 600.410156 L 330.195312 402.855469 C 332.523438 400.175781 334.605469 397.339844 336.429688 394.378906 C 340.132812 389.417969 342.808594 383.929688 344.339844 378.160156 L 399.484375 378.160156 C 399.542969 386.632812 401.164062 395.039062 404.277344 403.066406 L 443.117188 509.480469 L 463.015625 486.566406 L 431.25 401.914062 C 428.398438 393.722656 424.707031 385.773438 420.222656 378.160156 L 487.46875 378.160156 C 489.023438 386.683594 491.226562 395.109375 494.0625 403.378906 L 506.050781 436.546875 L 534.941406 403.066406 C 542.488281 395.441406 549.003906 387.085938 554.359375 378.160156 L 613.214844 378.160156 C 603.355469 385.292969 594.613281 393.527344 587.203125 402.644531 L 522.113281 478.089844 L 533.382812 509.480469 L 626.761719 402.855469 C 629.105469 399.78125 631.625 396.8125 634.3125 393.960938 C 638.089844 389.160156 640.851562 383.808594 642.464844 378.160156 L 697.367188 378.160156 C 698.015625 386.132812 699.625 394.023438 702.164062 401.703125 L 772.769531 598.421875 C 776.0625 609.414062 781.019531 619.96875 787.511719 629.816406 Z M 718.105469 629.917969 "/>
<path style=" stroke:none;fill-rule:evenodd;fill:rgb(0%,0%,56.078431%);fill-opacity:1;" d="M 648.578125 431.109375 L 596.074219 494.621094 L 672.195312 494.621094 Z M 476.203125 525.804688 L 457.261719 548.195312 L 469.96875 583.144531 L 490.105469 559.917969 Z M 352.011719 431.628906 L 297.113281 495.144531 L 375.867188 495.144531 Z M 352.011719 431.628906 "/>
<path style=" stroke:none;fill-rule:evenodd;fill:rgb(81.176471%,25.098039%,26.666667%);fill-opacity:1;" d="M 568.144531 365.289062 L 616.09375 365.289062 L 931.71875 0 L 883.769531 0 Z M 568.144531 365.289062 "/>
<path style=" stroke:none;fill-rule:evenodd;fill:rgb(100%,100%,100%);fill-opacity:1;" d="M 772.769531 598.421875 L 702.164062 401.703125 C 699.625 394.023438 698.015625 386.132812 697.367188 378.160156 L 642.464844 378.160156 C 640.851562 383.808594 638.089844 389.160156 634.3125 393.960938 C 631.625 396.8125 629.105469 399.78125 626.761719 402.855469 L 533.5 509.273438 L 522.234375 477.878906 L 587.324219 402.4375 C 594.730469 393.316406 603.476562 385.085938 613.335938 377.953125 L 554.480469 377.953125 C 549.125 386.875 542.605469 395.234375 535.058594 402.855469 L 506.171875 436.339844 L 494.183594 403.167969 C 491.34375 394.902344 489.140625 386.476562 487.589844 377.953125 L 419.980469 377.953125 C 424.46875 385.5625 428.160156 393.511719 431.007812 401.703125 L 462.777344 486.355469 L 442.878906 509.273438 L 404.277344 403.066406 C 401.242188 395.03125 399.707031 386.621094 399.722656 378.160156 L 344.339844 378.160156 C 342.882812 383.914062 340.285156 389.402344 336.667969 394.378906 C 334.847656 397.339844 332.761719 400.175781 330.4375 402.855469 L 159.496094 599.785156 C 149.410156 611.128906 137.730469 621.324219 124.734375 630.128906 L 180.714844 630.128906 L 270.859375 525.492188 L 386.175781 525.492188 L 399.242188 560.335938 L 365.679688 598.839844 C 357.160156 609.398438 347.351562 619.117188 336.429688 627.828125 C 335.398438 628.84375 334.277344 629.789062 333.074219 630.652344 L 385.816406 630.652344 L 413.75 599.261719 L 425.015625 630.652344 L 477.761719 630.652344 L 504.011719 599.261719 L 514.800781 630.652344 L 580.492188 630.652344 C 574.859375 620.496094 570.050781 610.003906 566.105469 599.261719 L 547.40625 550.183594 L 568.144531 526.328125 L 683.703125 526.328125 L 709.714844 598.738281 C 713.710938 608.929688 716.523438 619.445312 718.105469 630.128906 L 787.871094 630.128906 C 781.226562 620.203125 776.144531 609.535156 772.769531 598.421875 Z M 297.113281 494.621094 L 352.011719 431.109375 L 375.988281 494.621094 Z M 469.96875 583.144531 L 457.261719 548.195312 L 476.203125 525.804688 L 490.105469 559.917969 Z M 596.074219 494.621094 L 648.339844 431.109375 L 672.3125 494.621094 Z M 596.074219 494.621094 "/>
<path style=" stroke:none;fill-rule:nonzero;fill:rgb(0%,0%,56.078431%);fill-opacity:1;" d="M 1248.785156 436.234375 C 1250.097656 433.863281 1252.488281 432.078125 1255.375 431.316406 C 1258.34375 430.433594 1261.390625 429.769531 1264.488281 429.328125 C 1267.496094 428.808594 1270.539062 428.457031 1273.597656 428.28125 L 1273.597656 418.550781 L 1176.019531 418.550781 L 1176.019531 427.96875 C 1179.015625 428.351562 1181.980469 428.910156 1184.890625 429.640625 C 1187.945312 430.242188 1190.917969 431.117188 1193.761719 432.257812 C 1196.511719 433.332031 1198.816406 435.125 1200.355469 437.386719 C 1201.476562 439.625 1202.011719 442.058594 1201.914062 444.5 L 1201.914062 494.519531 L 1124.835938 494.519531 L 1124.835938 443.246094 C 1124.863281 440.777344 1125.390625 438.332031 1126.394531 436.027344 C 1127.667969 433.605469 1130.066406 431.777344 1132.984375 431.003906 C 1135.734375 430.25 1138.539062 429.65625 1141.378906 429.222656 C 1144.496094 428.617188 1147.660156 428.199219 1150.847656 427.96875 L 1150.847656 418.550781 L 1053.269531 418.550781 L 1053.269531 427.96875 C 1056.183594 428.273438 1059.070312 428.761719 1061.902344 429.433594 C 1065.207031 430.183594 1068.449219 431.128906 1071.609375 432.257812 C 1074.332031 433.335938 1076.59375 435.128906 1078.085938 437.386719 C 1079.253906 439.617188 1079.828125 442.050781 1079.761719 444.5 L 1079.761719 565.984375 C 1079.785156 568.578125 1079.171875 571.148438 1077.964844 573.519531 C 1076.636719 575.78125 1074.359375 577.503906 1071.609375 578.332031 C 1068.691406 579.144531 1065.675781 579.671875 1062.621094 579.902344 L 1053.269531 580.738281 L 1053.269531 590.15625 L 1150.847656 590.15625 L 1150.847656 580.738281 C 1147.625 580.445312 1144.421875 579.988281 1141.257812 579.378906 C 1138.421875 578.945312 1135.648438 578.242188 1132.984375 577.285156 C 1130.277344 576.332031 1128.058594 574.546875 1126.753906 572.265625 C 1125.417969 569.964844 1124.761719 567.410156 1124.835938 564.835938 L 1124.835938 507.179688 L 1201.914062 507.179688 L 1201.914062 566.195312 C 1202.058594 568.789062 1201.480469 571.371094 1200.234375 573.730469 C 1198.753906 575.917969 1196.472656 577.613281 1193.761719 578.542969 C 1191.0625 579.394531 1188.234375 579.886719 1185.371094 580.007812 L 1176.019531 580.738281 L 1176.019531 590.15625 L 1273.597656 590.15625 L 1273.597656 580.738281 C 1271.199219 580.738281 1267.964844 580.113281 1264.128906 579.484375 C 1261.113281 579.078125 1258.175781 578.339844 1255.375 577.285156 C 1252.59375 576.308594 1250.269531 574.539062 1248.785156 572.265625 C 1247.648438 569.917969 1247.117188 567.378906 1247.226562 564.835938 L 1247.226562 443.558594 C 1247.1875 441.050781 1247.714844 438.5625 1248.785156 436.234375 Z M 1248.785156 436.234375 "/>
<path style=" stroke:none;fill-rule:nonzero;fill:rgb(0%,0%,56.078431%);fill-opacity:1;" d="M 1413.367188 514.085938 C 1413.449219 506.988281 1412.238281 499.921875 1409.773438 493.15625 C 1407.394531 486.6875 1403.285156 480.804688 1397.785156 475.996094 C 1392.050781 470.695312 1384.996094 466.613281 1377.167969 464.066406 C 1366.992188 460.855469 1356.214844 459.367188 1345.402344 459.671875 L 1340.125 459.671875 C 1330.898438 460.066406 1321.835938 461.945312 1313.394531 465.21875 C 1304.28125 468.523438 1296.097656 473.523438 1289.421875 479.867188 C 1283.070312 485.992188 1278.074219 493.085938 1274.675781 500.796875 C 1271.214844 508.75 1269.46875 517.191406 1269.519531 525.699219 C 1269.410156 534.730469 1271.027344 543.714844 1274.316406 552.277344 C 1277.292969 560.089844 1282.203125 567.234375 1288.699219 573.207031 C 1295.386719 579.464844 1303.574219 584.359375 1312.675781 587.539062 C 1324.113281 591.46875 1336.351562 593.320312 1348.636719 592.980469 C 1356.011719 593.078125 1363.359375 592.230469 1370.453125 590.472656 C 1377 588.691406 1383.28125 586.234375 1389.15625 583.144531 C 1394.855469 580.324219 1400.0625 576.796875 1404.617188 572.683594 L 1404.617188 563.789062 C 1398.414062 567.585938 1391.527344 570.449219 1384.238281 572.265625 C 1377.992188 574.296875 1371.367188 575.289062 1364.699219 575.195312 C 1356.992188 575.359375 1349.351562 573.925781 1342.402344 571.007812 C 1337.613281 568.691406 1333.507812 565.433594 1330.417969 561.484375 C 1322.324219 549.515625 1318.523438 535.703125 1319.507812 521.828125 L 1413.007812 521.828125 Z M 1319.867188 511.679688 C 1319.34375 500.882812 1321.726562 490.132812 1326.820312 480.289062 C 1329.75 474.332031 1336.417969 470.4375 1343.84375 470.347656 C 1347.550781 470.242188 1351.171875 471.320312 1354.03125 473.382812 C 1357.097656 475.800781 1359.339844 478.917969 1360.503906 482.378906 C 1362.117188 486.609375 1363.082031 491.007812 1363.382812 495.460938 C 1363.382812 500.796875 1364.222656 505.921875 1364.222656 511.15625 Z M 1423.199219 548.09375 C 1423.148438 548.578125 1423.148438 549.070312 1423.199219 549.558594 C 1426.191406 545.972656 1428.648438 542.070312 1430.511719 537.941406 C 1427.308594 540.855469 1424.820312 544.3125 1423.199219 548.09375 Z M 1423.199219 548.09375 "/>
<path style=" stroke:none;fill-rule:nonzero;fill:rgb(0%,0%,56.078431%);fill-opacity:1;" d="M 1562.492188 581.996094 C 1560.03125 582.007812 1557.59375 581.617188 1555.296875 580.84375 C 1552.863281 579.730469 1550.890625 577.972656 1549.664062 575.820312 C 1548.359375 571.488281 1547.753906 567.011719 1547.867188 562.53125 L 1547.867188 502.46875 C 1548.242188 494.875 1546.558594 487.308594 1542.953125 480.390625 C 1540.019531 475.109375 1535.453125 470.652344 1529.765625 467.519531 C 1523.722656 464.40625 1517.046875 462.34375 1510.105469 461.453125 C 1502.167969 460.449219 1494.152344 459.957031 1486.132812 459.988281 C 1479.273438 460.066406 1472.445312 460.765625 1465.753906 462.082031 C 1458.96875 463.316406 1452.402344 465.324219 1446.214844 468.042969 C 1440.71875 470.328125 1435.761719 473.488281 1431.589844 477.355469 C 1428.429688 480.210938 1426.410156 483.882812 1425.835938 487.820312 C 1425.769531 488.585938 1425.769531 489.355469 1425.835938 490.125 C 1425.652344 495.09375 1427.769531 499.921875 1431.710938 503.515625 L 1432.546875 504.25 C 1437.179688 507.410156 1442.984375 508.972656 1448.851562 508.644531 C 1452.910156 508.855469 1456.976562 508.394531 1460.839844 507.285156 C 1463.402344 506.320312 1465.757812 504.976562 1467.792969 503.308594 C 1469.410156 501.871094 1470.605469 500.113281 1471.265625 498.179688 C 1472.027344 496.4375 1472.46875 494.601562 1472.585938 492.738281 C 1472.5625 489.1875 1471.914062 485.65625 1470.667969 482.273438 C 1469.640625 479.761719 1468.878906 477.167969 1468.390625 474.53125 C 1470.335938 473.210938 1472.472656 472.117188 1474.742188 471.289062 C 1477.878906 470.109375 1481.28125 469.574219 1484.691406 469.71875 C 1488.457031 469.582031 1492.167969 470.539062 1495.242188 472.4375 C 1497.859375 474.277344 1499.917969 476.648438 1501.234375 479.34375 C 1502.433594 482.167969 1503.160156 485.128906 1503.394531 488.136719 C 1503.585938 490.921875 1503.585938 493.71875 1503.394531 496.507812 L 1503.394531 508.75 C 1495.375 511.996094 1487.078125 514.691406 1478.578125 516.804688 C 1467.3125 519.839844 1457.601562 522.769531 1449.570312 525.492188 C 1445.460938 526.949219 1441.457031 528.625 1437.582031 530.511719 C 1434.078125 532.296875 1430.921875 534.554688 1428.234375 537.210938 C 1426.371094 541.335938 1423.914062 545.238281 1420.921875 548.824219 C 1419.644531 552.914062 1419.039062 557.144531 1419.121094 561.382812 C 1418.683594 570.136719 1422.722656 578.609375 1430.152344 584.507812 C 1437.375 590.34375 1446.921875 593.496094 1456.761719 593.296875 C 1462.285156 593.425781 1467.804688 592.933594 1473.183594 591.832031 C 1477.335938 590.804688 1481.355469 589.402344 1485.171875 587.644531 C 1488.472656 586.222656 1491.574219 584.46875 1494.402344 582.414062 C 1497.5 580.140625 1500.421875 577.695312 1503.152344 575.089844 L 1503.992188 575.089844 C 1505.554688 580.484375 1509.300781 585.207031 1514.542969 588.378906 C 1521.878906 591.84375 1530.1875 593.441406 1538.515625 592.980469 C 1544.269531 593.027344 1550 592.355469 1555.539062 590.992188 C 1559.042969 590.375 1562.234375 588.796875 1564.648438 586.496094 L 1564.648438 581.472656 C 1563.808594 582.203125 1565.726562 582.101562 1562.492188 581.996094 Z M 1504.113281 564.207031 C 1501.746094 566.9375 1498.914062 569.335938 1495.722656 571.320312 C 1492.136719 573.28125 1487.960938 574.261719 1483.734375 574.148438 C 1479.164062 574.308594 1474.757812 572.65625 1471.746094 569.648438 C 1468.15625 565.519531 1466.445312 560.375 1466.953125 555.207031 C 1466.859375 550.730469 1467.796875 546.285156 1469.710938 542.128906 C 1471.511719 538.601562 1474.21875 535.488281 1477.621094 533.023438 C 1481.332031 530.484375 1485.351562 528.308594 1489.609375 526.535156 C 1494.480469 524.449219 1499.484375 522.597656 1504.59375 520.992188 Z M 1650.957031 580.113281 C 1648.917969 580.113281 1647 578.855469 1645.203125 578.226562 C 1642.742188 577.371094 1640.675781 575.824219 1639.328125 573.832031 C 1638.039062 571.597656 1637.417969 569.113281 1637.53125 566.613281 L 1637.53125 405.261719 L 1635.375 403.273438 L 1565.726562 406.414062 L 1565.726562 415.308594 C 1569.105469 415.527344 1572.445312 416.089844 1575.675781 416.980469 C 1578.609375 417.632812 1581.429688 418.617188 1584.066406 419.910156 C 1586.523438 421.421875 1588.46875 423.484375 1589.703125 425.875 C 1591.136719 428.5625 1591.875 431.492188 1591.859375 434.457031 L 1591.859375 568.183594 C 1591.996094 570.628906 1591.460938 573.070312 1590.300781 575.296875 C 1588.976562 577.34375 1586.777344 578.847656 1584.1875 579.484375 C 1582.253906 580.109375 1580.242188 580.53125 1578.195312 580.738281 L 1571.121094 580.738281 L 1571.121094 589.632812 L 1658.269531 589.632812 L 1658.269531 580.738281 C 1655.816406 580.734375 1653.367188 580.527344 1650.957031 580.113281 Z M 1754.40625 478.300781 L 1754.40625 464.382812 L 1715.570312 464.382812 L 1715.570312 430.164062 L 1698.90625 430.164062 C 1698.90625 442.929688 1664.742188 472.753906 1655.753906 472.960938 C 1655.222656 474.710938 1655.222656 476.550781 1655.753906 478.300781 L 1670.855469 478.300781 L 1670.855469 556.148438 C 1670.113281 566.1875 1673.851562 576.089844 1681.285156 583.773438 C 1689.953125 590.730469 1701.550781 594.21875 1713.292969 593.402344 C 1726.882812 593.15625 1740.191406 589.953125 1752.011719 584.085938 L 1752.011719 577.703125 C 1748.921875 578.253906 1745.800781 578.640625 1742.660156 578.855469 L 1732.230469 578.855469 C 1727.484375 578.597656 1723.226562 576.226562 1720.964844 572.578125 C 1717.445312 566.050781 1715.914062 558.84375 1716.527344 551.648438 L 1716.527344 478.402344 Z M 1937.8125 580.738281 L 1937.8125 590.15625 L 1857.617188 590.15625 L 1857.617188 580.738281 L 1863.851562 580.113281 C 1865.695312 580.054688 1867.503906 579.625 1869.125 578.855469 C 1870.988281 577.980469 1872.398438 576.523438 1873.082031 574.773438 C 1874.015625 572.207031 1874.421875 569.515625 1874.28125 566.824219 L 1874.28125 498.496094 C 1873.574219 489.625 1864.917969 482.855469 1854.742188 483.21875 C 1844.804688 483.839844 1834.984375 485.492188 1825.492188 488.136719 L 1825.492188 565.042969 C 1825.414062 567.59375 1825.816406 570.140625 1826.691406 572.578125 C 1827.613281 574.492188 1829.207031 576.105469 1831.246094 577.183594 C 1832.921875 578.003906 1834.6875 578.667969 1836.519531 579.167969 C 1838.585938 579.773438 1840.710938 580.195312 1842.875 580.425781 L 1842.875 589.84375 L 1761.480469 589.84375 L 1761.480469 580.425781 C 1763.730469 580.328125 1765.96875 580.117188 1768.191406 579.796875 C 1770.210938 579.640625 1772.191406 579.214844 1774.066406 578.542969 C 1776.597656 577.789062 1778.699219 576.214844 1779.941406 574.148438 C 1781.097656 571.730469 1781.628906 569.125 1781.5 566.507812 L 1781.5 436.757812 C 1781.421875 433.78125 1780.730469 430.835938 1779.460938 428.074219 C 1778.484375 425.328125 1776.558594 422.917969 1773.945312 421.167969 C 1771.578125 419.84375 1768.929688 418.953125 1766.15625 418.550781 C 1763.164062 417.917969 1760.117188 417.496094 1757.042969 417.296875 L 1757.042969 408.085938 L 1823.574219 404.738281 L 1825.492188 406.726562 L 1825.492188 476.835938 C 1834.375 471.238281 1844.257812 466.957031 1854.742188 464.171875 C 1864.175781 461.4375 1874.046875 460.023438 1883.988281 459.988281 C 1902.707031 460.152344 1917.886719 473.265625 1918.273438 489.601562 C 1918.332031 490.574219 1918.332031 491.554688 1918.273438 492.53125 L 1918.273438 565.777344 C 1918.191406 568.355469 1918.722656 570.921875 1919.832031 573.308594 C 1920.960938 575.320312 1922.871094 576.917969 1925.226562 577.808594 C 1926.957031 578.546875 1928.765625 579.140625 1930.621094 579.589844 C 1932.976562 580.152344 1935.382812 580.539062 1937.8125 580.738281 Z M 1937.8125 580.738281 "/>
<path style=" stroke:none;fill-rule:nonzero;fill:rgb(0%,0%,56.078431%);fill-opacity:1;" d="M 1918.394531 492.738281 C 1918.453125 491.761719 1918.453125 490.785156 1918.394531 489.808594 Z M 1874.28125 502.261719 L 1874.28125 540.976562 L 1874.28125 499.121094 C 1874.160156 499.960938 1874.28125 501.214844 1874.28125 502.261719 Z M 1874.28125 502.261719 "/>
</g>
</svg>
