<svg width="50" height="50" viewBox="0 0 58 58" fill="none" xmlns="http://www.w3.org/2000/svg">
    <path fill-rule="evenodd" clip-rule="evenodd" d="M53.1666 29C53.1666 42.3468 42.3467 53.1667 28.9999 53.1667C15.653 53.1667 4.83325 42.3468 4.83325 29C4.83325 15.6531 15.653 4.83333 28.9999 4.83333C42.3467 4.83333 53.1666 15.6531 53.1666 29ZM36.2499 21.75C36.2499 25.7542 33.0041 29 28.9999 29C24.9957 29 21.7499 25.7542 21.7499 21.75C21.7499 17.7459 24.9957 14.5 28.9999 14.5C33.0041 14.5 36.2499 17.7459 36.2499 21.75ZM28.9999 49.5417C33.3113 49.5417 37.3125 48.2135 40.6166 45.9437C42.076 44.9413 42.6995 43.0316 41.8513 41.4777C40.0924 38.2566 36.4679 36.25 28.9997 36.25C21.5317 36.25 17.9073 38.2563 16.1484 41.4777C15.3 43.0316 15.9236 44.9411 17.3829 45.9435C20.687 48.2132 24.6883 49.5417 28.9999 49.5417Z" fill="#1C274C"/>
    </svg>
    