<svg width="45" height="45" viewBox="0 0 45 45" fill="none" xmlns="http://www.w3.org/2000/svg">
    <rect width="45" height="45" rx="10" fill="#FC2020"/>
    <path d="M22 3C17.325 3 13.5 7.76 13.5 13.625C13.5 19.49 17.325 24.25 22 24.25C26.675 24.25 30.5 19.49 30.5 13.625C30.5 7.76 26.675 3 22 3ZM13.1175 24.25C8.6125 24.4625 5 28.16 5 32.75V37H39V32.75C39 28.16 35.43 24.4625 30.8825 24.25C28.5875 26.8425 25.4425 28.5 22 28.5C18.5575 28.5 15.4125 26.8425 13.1175 24.25Z" fill="white"/>
    </svg>
    